<svg id="Layer_2" data-name="Layer 2" xmlns="http://www.w3.org/2000/svg" width="25.238" height="25.982" viewBox="0 0 25.238 25.982">
  <path id="percent" d="M10.309,14.7a5.437,5.437,0,0,0,5.52-5.349A5.437,5.437,0,0,0,10.309,4a5.437,5.437,0,0,0-5.52,5.349A5.437,5.437,0,0,0,10.309,14.7Zm0-7.641A2.293,2.293,0,1,1,7.943,9.349,2.33,2.33,0,0,1,10.309,7.057ZM22.927,19.283a5.351,5.351,0,1,0,5.52,5.349A5.437,5.437,0,0,0,22.927,19.283Zm0,7.641a2.293,2.293,0,1,1,2.366-2.292A2.33,2.33,0,0,1,22.927,26.924ZM28.826,4.4a1.436,1.436,0,0,0-1.987,0L4.41,26.129a1.343,1.343,0,0,0,.456,2.221,1.437,1.437,0,0,0,1.531-.3L28.826,6.324a1.33,1.33,0,0,0,0-1.926Z" transform="translate(-4 -3.999)" fill="#022b52"/>
</svg>
