<svg xmlns="http://www.w3.org/2000/svg" width="31.36" height="22.008" viewBox="0 0 31.36 22.008">
  <path id="_04891ae07eaa2e1ec8755d2cf87e55f2" data-name="04891ae07eaa2e1ec8755d2cf87e55f2" d="M30.489,12.985c-1.383-7.724-4.475-10-6.12-10-2.567,0-3.225,1.908-8.689,1.973C10.217,4.89,9.559,2.982,6.992,2.982c-1.645,0-4.739,2.278-6.122,10-.789,4.409-1.645,10.992.4,11.782,2.539.983,3.4-1.476,6.188-3.553,2.83-2.106,4.188-2.6,8.228-2.6s5.4.5,8.228,2.6C26.7,23.29,27.557,25.75,30.1,24.767,32.136,23.977,31.279,17.4,30.489,12.985Zm-21.081,1a3.136,3.136,0,1,1,3.136-3.136A3.136,3.136,0,0,1,9.408,13.987Zm10.976,0a1.568,1.568,0,1,1,1.568-1.568A1.568,1.568,0,0,1,20.385,13.987Zm3.136-3.136a1.568,1.568,0,1,1,1.568-1.568A1.568,1.568,0,0,1,23.521,10.85Z" transform="translate(0 -2.982)" fill="#022b52" fill-rule="evenodd"/>
</svg>
